<!DOCTYPE svg PUBLIC "-//W3C//DTD SVG 1.1//EN" "http://www.w3.org/Graphics/SVG/1.1/DTD/svg11.dtd">

<!-- Uploaded to: SVG Repo, www.svgrepo.com, Transformed by: SVG Repo Mixer Tools -->
<svg width="20" height="20" viewBox="0 0 24 24" fill="none" xmlns="http://www.w3.org/2000/svg">

<g id="SVGRepo_bgCarrier" stroke-width="0"/>

<g id="SVGRepo_tracerCarrier" stroke-linecap="round" stroke-linejoin="round"/>

<g id="SVGRepo_iconCarrier"> <path d="M20 1C20 0.447715 20.4477 0 21 0C21.5523 0 22 0.447715 22 1V2H23C23.5523 2 24 2.44772 24 3C24 3.55228 23.5523 4 23 4H22V5C22 5.55228 21.5523 6 21 6C20.4477 6 20 5.55228 20 5V4H19C18.4477 4 18 3.55228 18 3C18 2.44772 18.4477 2 19 2H20V1Z" fill="#ffffff"/> <path d="M21.1936 8.07463C21.7016 7.85776 22.297 8.09138 22.4669 8.6169C23.145 10.7148 23.1792 12.9766 22.5523 15.1064C21.8308 17.5572 20.2788 19.6804 18.1626 21.1117C16.0464 22.5429 13.4981 23.193 10.9549 22.9502C8.41167 22.7075 6.03227 21.5871 4.22504 19.7814C2.41781 17.9757 1.29547 15.5972 1.05063 13.0542C0.805798 10.5112 1.45375 7.96227 2.88327 5.84491C4.31278 3.72755 6.43473 2.17379 8.88489 1.4503C11.0142 0.821568 13.276 0.853957 15.3745 1.53036C15.9001 1.69979 16.1342 2.29501 15.9178 2.80311C15.7013 3.31122 15.1136 3.54496 14.5846 3.38623C12.9185 2.88626 11.1353 2.8783 9.45321 3.37498C7.45005 3.96647 5.71523 5.23677 4.54651 6.96784C3.3778 8.69891 2.84806 10.7828 3.04823 12.8619C3.24839 14.9409 4.16598 16.8855 5.6435 18.3618C7.12102 19.8381 9.06632 20.754 11.1455 20.9525C13.2248 21.1509 15.3082 20.6195 17.0383 19.4493C18.7684 18.2792 20.0373 16.5433 20.6271 14.5397C21.1224 12.8572 21.113 11.074 20.6116 9.40826C20.4525 8.87941 20.6857 8.29149 21.1936 8.07463Z" fill="#ffffff"/> <path d="M7.71056 9.14472L7.29443 9.35279C6.69972 9.65014 6 9.21769 6 8.55279C6 8.214 6.19141 7.9043 6.49443 7.75279L7.78886 7.10557C7.92771 7.03615 8.08082 7 8.23607 7H9C9.55229 7 10 7.44772 10 8V16C10 16.5523 9.55229 17 9 17C8.44772 17 8 16.5523 8 16V9.32361C8 9.17493 7.84354 9.07823 7.71056 9.14472Z" fill="#ffffff"/> <path d="M14.5 9H15.2597C15.6686 9 16 9.33145 16 9.74031C16 9.90842 15.9428 10.0715 15.8378 10.2028L12.2191 14.7261C12.0773 14.9034 12 15.1237 12 15.3508V16C12 16.5523 12.4477 17 13 17H17C17.5523 17 18 16.5523 18 16C18 15.4477 17.5523 15 17 15H14.9089C14.7425 15 14.6489 14.8086 14.7511 14.6772L17.5787 11.0417C17.8518 10.6906 18 10.2585 18 9.81378V9C18 7.89543 17.1046 7 16 7H14C12.8954 7 12 7.89543 12 9C12 9.55228 12.4477 10 13 10H13.5C13.7761 10 14 9.77614 14 9.5C14 9.22386 14.2239 9 14.5 9Z" fill="#ffffff"/> </g>

</svg>